<?xml version="1.0" encoding="utf-8"?>
<!-- Generator: Adobe Illustrator 27.2.0, SVG Export Plug-In . SVG Version: 6.00 Build 0)  -->
<svg version="1.1" id="Layer_1" xmlns="http://www.w3.org/2000/svg" xmlns:xlink="http://www.w3.org/1999/xlink" x="0px" y="0px"
	 viewBox="0 0 177.36 100.29" style="enable-background:new 0 0 177.36 100.29;" xml:space="preserve">
<style type="text/css">
	.st0{fill:#FCFCFC;}
	.st1{fill:#FFFDFD;}
	.st2{fill:#FFFFFF;}
	.st3{fill:#EAEAEA;}
	.st4{fill:none;}
</style>
<g>
	<path class="st0" d="M129.74,81.18c-1.73-2.22-3.14-6.21-0.8-10.1c1.26-2.07,2.58-4.09,3.98-6.08c3.73-5.32,10.43-6.43,14.31-2.92
		c3.9,3.52,4.2,9.54,1.22,13.81c-1.15,1.65-2.25,3.33-3.29,5.05c-1.91,3.16-5.69,3.85-8.5,3.74c-1.31-0.06-2.56,0.8-3.09,2.1
		c-0.29,0.71-0.57,1.43-0.84,2.15l29.58-0.09c0-0.38,0-0.79-0.01-1.18c-0.63-34.2-24.24-62.76-56-70.94
		c-6.04-1.56-12.38-2.38-18.91-2.36c-41.26,0.12-74.61,33.68-74.49,74.93l55.43-0.16c0.26-0.88,0.54-1.74,0.82-2.61
		c2.3-7.02,5.12-13.82,8.41-20.37c1.03-2.05,1.23-4.29,0.49-5.72c-1.41-2.72-2.22-7.63,0.97-12.9c4.15-6.83,8.83-13.35,14.02-19.51
		c0.41-0.49,0.91-0.82,1.36-0.99c0.51-0.17,0.97-0.12,1.24,0.19c0.49,0.53,0.18,1.71-0.6,2.64c-3.92,4.63-7.54,9.5-10.85,14.55
		c-0.35,0.53-0.52,1.07-0.54,1.55c-0.02,0.46,0.11,0.83,0.4,1.03c0.63,0.48,1.77-0.13,2.47-1.2c3.25-4.96,6.81-9.72,10.66-14.28
		c0.39-0.47,0.88-0.79,1.32-0.93c0.43-0.15,0.83-0.12,1.1,0.09c0.63,0.46,0.38,1.73-0.43,2.69c-3.78,4.47-7.27,9.16-10.46,14.02
		c-0.33,0.51-0.5,1.04-0.51,1.51c-0.01,0.47,0.15,0.85,0.47,1.05c0.31,0.2,0.73,0.18,1.14-0.01c0.41-0.19,0.84-0.56,1.16-1.06
		c3.13-4.77,6.56-9.38,10.27-13.77c0.8-0.94,2-1.35,2.55-0.79c0.24,0.24,0.34,0.62,0.27,1.05c-0.06,0.46-0.29,0.95-0.66,1.4
		c-3.64,4.31-7,8.81-10.08,13.49c-0.67,1.01-0.7,2.26-0.01,2.62c0.3,0.17,0.7,0.15,1.08-0.02c0.4-0.18,0.81-0.53,1.12-1.01
		c3.02-4.59,6.32-9.02,9.89-13.25c0.72-0.84,1.78-1.25,2.36-0.83c0.34,0.24,0.47,0.67,0.41,1.14c-0.06,0.45-0.27,0.92-0.63,1.36
		c-4.56,5.4-8.67,11.11-12.31,17.1c-2.77,4.58-6.9,6.31-9.93,6.73c-1.56,0.2-3.21,1.68-4.08,3.73c-2.76,6.57-5.03,13.33-6.78,20.22
		c-0.09,0.35-0.18,0.7-0.26,1.05l26.27-0.08c0.32-1.09,0.42-2.23,0.27-3.28c-0.59-1.95-1.14-3.94-1.64-5.96
		c-0.2-2.34,0.29-4.9,1.42-7.24c2.19-4.6,4.66-9.06,7.38-13.37c1.77-2.81,4.14-5.16,6.77-6.77c2.52-1.54,5.07-2.97,7.65-4.29
		c1.1-0.57,2.22-0.51,2.94,0.11c1.09,0.96,0.98,2.87-0.2,4.37c-8.64,10.97-15.23,23.3-19.52,36.41L128,88.93
		c0.61-1.3,1.26-2.58,1.92-3.85C130.6,83.78,130.54,82.24,129.74,81.18z"/>
	<path class="st1" d="M3,94.42c0,1.41,0.58,2.68,1.51,3.61c0.92,0.92,2.21,1.49,3.62,1.49l57.45-0.17c0.79-3.45,1.7-6.86,2.74-10.23
		L8.09,89.3C5.27,89.3,2.99,91.59,3,94.42z"/>
	<path class="st1" d="M72.06,99.32l25.06-0.07c0.52-1.84,1.07-3.67,1.67-5.47c0.47-1.44,0.97-2.87,1.5-4.28
		c0.06-0.15,0.11-0.31,0.15-0.48L74.17,89.1C73.34,92.47,72.64,95.89,72.06,99.32z"/>
	<path class="st2" d="M103.65,95.19c-0.36,1.34-0.7,2.68-1,4.04l21.15-0.06c1.21-3.49,2.62-6.92,4.19-10.23l-22.49,0.07
		C104.82,91.05,104.21,93.12,103.65,95.19z"/>
	<path class="st2" d="M173.69,90.29c-0.92-0.92-2.2-1.48-3.62-1.48l-37.35,0.11c-1.29,3.35-2.38,6.76-3.28,10.23l40.66-0.12
		c2.82-0.01,5.1-2.31,5.09-5.12C175.2,92.5,174.62,91.22,173.69,90.29z"/>
	<path class="st3" d="M148.45,75.88c2.97-4.27,2.67-10.29-1.22-13.81c-3.87-3.52-10.58-2.41-14.31,2.92
		c-1.4,1.99-2.72,4.01-3.98,6.08c-2.35,3.89-0.93,7.88,0.8,10.1c0.8,1.06,0.86,2.61,0.18,3.9c-0.66,1.27-1.31,2.55-1.92,3.85
		L105.51,89c4.29-13.1,10.88-25.43,19.52-36.41c1.18-1.5,1.28-3.41,0.2-4.37c-0.72-0.63-1.84-0.68-2.94-0.11
		c-2.58,1.32-5.12,2.76-7.65,4.29c-2.63,1.61-5,3.96-6.77,6.77c-2.72,4.31-5.18,8.77-7.38,13.37c-1.13,2.34-1.61,4.9-1.42,7.24
		c0.49,2.02,1.04,4.01,1.64,5.96c0.14,1.05,0.05,2.19-0.27,3.28l-26.27,0.08c0,0,0,0,0,0c1.78-7.26,4.14-14.37,7.04-21.27
		c0.86-2.06,2.52-3.54,4.08-3.73c3.03-0.41,7.17-2.15,9.93-6.73c3.64-5.99,7.76-11.71,12.31-17.1c0.36-0.44,0.57-0.91,0.63-1.36
		c0.06-0.48-0.06-0.9-0.41-1.14c-0.59-0.42-1.65-0.02-2.36,0.83c-3.57,4.23-6.86,8.66-9.89,13.25c-0.31,0.49-0.72,0.83-1.12,1.01
		c-0.38,0.17-0.78,0.19-1.08,0.02c-0.69-0.36-0.66-1.61,0.01-2.62c3.07-4.68,6.44-9.18,10.08-13.49c0.37-0.45,0.6-0.94,0.66-1.4
		c0.07-0.44-0.02-0.81-0.27-1.05c-0.55-0.56-1.75-0.16-2.55,0.79c-3.71,4.39-7.14,8.99-10.27,13.77c-0.32,0.5-0.75,0.86-1.16,1.06
		c-0.41,0.19-0.83,0.21-1.14,0.01c-0.31-0.2-0.48-0.59-0.47-1.05c0.01-0.47,0.18-1,0.51-1.51c3.19-4.87,6.68-9.55,10.46-14.02
		c0.81-0.96,1.06-2.23,0.43-2.69c-0.27-0.21-0.67-0.24-1.1-0.09c-0.44,0.14-0.93,0.47-1.32,0.93c-3.85,4.55-7.41,9.32-10.66,14.28
		c-0.71,1.07-1.85,1.68-2.47,1.2c-0.28-0.2-0.42-0.58-0.4-1.03c0.02-0.48,0.19-1.02,0.54-1.55c3.31-5.05,6.93-9.91,10.85-14.55
		c0.78-0.93,1.09-2.11,0.6-2.64c-0.27-0.31-0.74-0.36-1.24-0.19c-0.45,0.16-0.95,0.5-1.36,0.99c-5.19,6.16-9.88,12.67-14.02,19.51
		c-3.19,5.27-2.39,10.18-0.97,12.9c0.74,1.42,0.54,3.67-0.49,5.72c-3.29,6.55-6.11,13.35-8.41,20.37c-0.28,0.87-0.56,1.73-0.82,2.61
		l0,0c-7.29,0.02-12.98-6.39-11.98-13.61c4.47-32.44,24.95-57.25,49.96-58.79c31.76,8.18,55.37,36.74,56,70.94
		c0.01,0.39,0.01,0.8,0.01,1.18l-29.58,0.09c0.27-0.72,0.55-1.44,0.84-2.15c0.53-1.31,1.78-2.16,3.09-2.1
		c2.8,0.11,6.58-0.58,8.5-3.74C146.2,79.22,147.3,77.53,148.45,75.88z"/>
	<path class="st2" d="M86.22,2.71L86.22,2.71c-3.86,0.01-6.98,3.15-6.96,7.01l0.02,6.99l13.97-0.04l-0.02-6.99
		C93.22,5.82,90.08,2.7,86.22,2.71z"/>
</g>
<rect x="-0.18" y="-0.07" class="st4" width="177.36" height="100.29"/>
</svg>
